<svg width="16" height="13" viewBox="0 0 16 13" fill="none"
    xmlns="http://www.w3.org/2000/svg">
    <path d="M15.4286 0.21106H0.571429C0.255357 0.21106 0 0.466417 0 0.782488V12.2111C0 12.5271 0.255357 12.7825 0.571429 12.7825H15.4286C15.7446 12.7825 16 12.5271 16 12.2111V0.782488C16 0.466417 15.7446 0.21106 15.4286 0.21106ZM14.7143 2.18963V11.4968H1.28571V2.18963L0.792857 1.8057L1.49464 0.903917L2.25893 1.49856H13.7429L14.5071 0.903917L15.2089 1.8057L14.7143 2.18963ZM13.7429 1.49677L8 5.96106L2.25714 1.49677L1.49286 0.902131L0.791072 1.80392L1.28393 2.18785L7.38393 6.9307C7.55936 7.06699 7.77518 7.14097 7.99732 7.14097C8.21947 7.14097 8.43529 7.06699 8.61071 6.9307L14.7143 2.18963L15.2071 1.8057L14.5054 0.903917L13.7429 1.49677Z" fill="#959595"/>
</svg>
